<svg id="svg" version="1.1" xmlns="http://www.w3.org/2000/svg" xmlns:xlink="http://www.w3.org/1999/xlink" width="30" height="30" viewBox="0, 0, 400,400"><g id="svgg"><path id="path0" d="M182.031 0.903 C 157.002 5.079,137.596 13.625,118.958 28.679 C 66.539 71.017,55.547 146.763,93.612 203.327 C 101.632 215.243,132.108 263.465,131.809 263.764 C 131.637 263.936,127.133 264.927,121.802 265.964 C 47.675 280.391,11.290 310.689,27.441 344.540 C 63.685 420.506,350.550 417.461,374.210 340.859 C 384.603 307.213,349.295 279.665,278.198 265.948 C 272.867 264.919,268.361 263.934,268.186 263.759 C 268.011 263.584,277.625 248.200,289.551 229.572 C 301.477 210.944,312.891 192.539,314.916 188.672 C 337.516 145.512,332.692 90.722,302.811 51.193 C 274.753 14.077,225.637 -6.374,182.031 0.903 M216.924 25.386 C 279.985 35.614,319.452 101.128,299.525 162.500 C 298.060 167.012,295.019 174.113,292.767 178.280 C 288.642 185.913,200.727 324.162,200.000 324.159 C 199.785 324.158,182.383 297.060,161.328 263.940 C 140.273 230.821,119.936 198.942,116.134 193.099 C 100.669 169.332,95.322 152.942,95.317 129.297 C 95.303 64.563,153.240 15.057,216.924 25.386 M185.156 72.687 C 141.250 83.977,126.399 138.955,158.566 171.122 C 195.713 208.269,258.594 182.222,258.594 129.688 C 258.594 91.070,222.528 63.076,185.156 72.687 M212.697 97.564 C 226.256 102.900,233.968 114.547,233.968 129.688 C 233.968 174.335,167.926 175.699,165.797 131.095 C 164.610 106.223,189.494 88.432,212.697 97.564 M169.102 321.424 C 192.964 358.789,193.125 358.984,200.000 358.984 C 206.874 358.984,207.050 358.771,230.637 321.816 C 242.546 303.157,252.779 287.573,253.376 287.184 C 254.061 286.739,259.081 287.248,266.971 288.564 C 325.134 298.263,361.785 320.082,348.702 337.222 C 317.872 377.610,161.709 389.524,82.680 357.517 C 40.519 340.441,37.704 322.921,74.327 305.515 C 91.811 297.205,133.624 286.207,144.883 286.956 C 147.027 287.099,148.728 289.519,169.102 321.424 " stroke="none" fill="#ffffff" fill-rule="evenodd"></path></g></svg>